<?xml version="1.0" encoding="utf-8"?>
<!-- Generator: Adobe Illustrator 24.0.1, SVG Export Plug-In . SVG Version: 6.00 Build 0)  -->
<svg version="1.1" id="Layer_1" xmlns="http://www.w3.org/2000/svg" xmlns:xlink="http://www.w3.org/1999/xlink" x="0px" y="0px"
	 viewBox="0 0 1024 1024" style="enable-background:new 0 0 1024 1024;" xml:space="preserve">
<style type="text/css">
	.st0{fill:#63BF63;}
</style>
<path class="st0" d="M1019,512c0,92-22.7,176.8-68,254.5C905.7,844.2,844.2,905.7,766.5,951c-77.7,45.3-162.5,68-254.5,68
	c-92,0-176.8-22.7-254.5-68C179.8,905.7,118.3,844.2,73,766.5S5,604,5,512s22.7-176.8,68-254.5S179.8,118.3,257.5,73S420,5,512,5
	c92,0,176.8,22.7,254.5,68S905.7,179.8,951,257.5C996.3,335.2,1019,420,1019,512z"/>
</svg>
