<?xml version="1.0" encoding="utf-8"?>
<!-- Generator: Adobe Illustrator 24.0.1, SVG Export Plug-In . SVG Version: 6.00 Build 0)  -->
<svg version="1.1" id="Layer_1" xmlns="http://www.w3.org/2000/svg" xmlns:xlink="http://www.w3.org/1999/xlink" x="0px" y="0px"
	 viewBox="0 0 1024 1024" style="enable-background:new 0 0 1024 1024;" xml:space="preserve">
<style type="text/css">
	.st0{fill:#FFFFFF;}
</style>
<path class="st0" d="M511.9,928c-8.3,0-16.3-3.1-22.7-9.5l-96-96c-12.6-12.6-12.6-32.7,0-45.2s32.7-12.6,45.2,0l73.5,73.5l73.5-73.5
	c6-6,14.1-9.5,22.7-9.5h224c17.7,0,32-14.3,32-32V224c0-17.5-14.3-32-32-32H192.1c-17.5,0-32,14.4-32,32v511.9c0,17.7,14.4,32,32,32
	h96c17.7,0,32,14.3,32,32s-14.3,32-32,32h-96c-53,0-96-43-96-96l0-511.9c0-53,43-96,96-96H832c53,0,96,43,96,96v511.9
	c0,53-43,96-96,96H621.1l-86.5,86.7C528.4,924.7,520.2,928,511.9,928z"/>
<path class="st0" d="M335.9,511.9c-26.5,0-48-21.5-48-48s21.5-48,48-48s48,21.5,48,48S362.4,511.9,335.9,511.9z"/>
<path class="st0" d="M527.9,511.9c-26.5,0-48-21.5-48-48s21.5-48,48-48s48,21.5,48,48S554.4,511.9,527.9,511.9z"/>
<path class="st0" d="M720.1,511.9c-26.5,0-48-21.5-48-48s21.5-48,48-48s48,21.5,48,48S746.4,511.9,720.1,511.9z"/>
</svg>
